<?xml version="1.0" encoding="utf-8"?>
<!-- Generator: Adobe Illustrator 24.2.0, SVG Export Plug-In . SVG Version: 6.00 Build 0)  -->
<svg version="1.1" id="Layer_1" xmlns="http://www.w3.org/2000/svg" xmlns:xlink="http://www.w3.org/1999/xlink" x="0px" y="0px"
	 viewBox="0 0 1600 706" style="enable-background:new 0 0 1600 706;" xml:space="preserve">
<style type="text/css">
	.st0{fill:#0CABEC;}
	.st1{fill:#2CA8DF;}
	.st2{fill:#FFFFFF;}
</style>
<g>
	<g>
		<path class="st0" d="M824.65,367.26c10.69,0,19.6,1.21,26.72,3.64c7.13,2.43,12.84,5.91,17.13,10.45
			c4.29,4.54,7.33,10.04,9.11,16.52c1.78,6.48,2.67,13.69,2.67,21.62v75.31c-5.19,1.13-12.39,2.47-21.62,4.01
			c-9.23,1.54-20.41,2.31-33.53,2.31c-8.26,0-15.75-0.73-22.47-2.19c-6.72-1.46-12.51-3.85-17.37-7.17
			c-4.86-3.32-8.59-7.65-11.18-13c-2.59-5.34-3.89-11.9-3.89-19.68c0-7.45,1.5-13.77,4.49-18.95c3-5.18,7-9.31,12.03-12.39
			c5.02-3.08,10.77-5.3,17.25-6.68c6.48-1.37,13.2-2.07,20.17-2.07c4.7,0,8.87,0.21,12.51,0.61c3.65,0.41,6.6,0.93,8.87,1.58v-3.4
			c0-6.15-1.86-11.09-5.59-14.82c-3.73-3.72-10.2-5.59-19.44-5.59c-6.16,0-12.23,0.45-18.22,1.34c-5.99,0.89-11.18,2.15-15.55,3.76
			l-4.62-29.15c2.1-0.65,4.74-1.34,7.9-2.07c3.16-0.73,6.6-1.37,10.32-1.94c3.72-0.57,7.65-1.05,11.78-1.46
			C816.27,367.47,820.44,367.26,824.65,367.26z M827.57,473.19c3.56,0,6.96-0.08,10.2-0.24c3.24-0.16,5.83-0.4,7.78-0.73v-27.45
			c-1.46-0.32-3.65-0.64-6.56-0.97c-2.92-0.32-5.59-0.49-8.02-0.49c-3.4,0-6.6,0.21-9.6,0.61c-3,0.41-5.63,1.18-7.9,2.31
			c-2.27,1.13-4.05,2.67-5.34,4.62c-1.3,1.94-1.94,4.37-1.94,7.29c0,5.67,1.9,9.6,5.71,11.78
			C815.7,472.1,820.92,473.19,827.57,473.19z"/>
		<path class="st0" d="M913.08,375.04c6.15-1.78,14.09-3.44,23.81-4.98c9.72-1.54,19.92-2.31,30.61-2.31
			c10.85,0,19.88,1.42,27.09,4.25c7.2,2.84,12.91,6.84,17.13,12.03c4.21,5.19,7.2,11.34,8.99,18.46c1.78,7.13,2.67,15.06,2.67,23.81
			v72.16h-36.2v-67.78c0-11.66-1.54-19.92-4.62-24.78c-3.08-4.86-8.83-7.29-17.25-7.29c-2.59,0-5.34,0.12-8.26,0.36
			c-2.92,0.24-5.51,0.53-7.78,0.85v98.64h-36.2V375.04z"/>
		<path class="st0" d="M1087.46,498.46c-8.29-16.19-16.71-35.14-25.24-56.85c-8.53-21.7-16.62-45.35-24.26-70.94h38.39
			c1.62,6.32,3.54,13.16,5.74,20.53c2.19,7.37,4.47,14.82,6.83,22.35c2.36,7.53,4.71,14.86,7.08,21.99
			c2.36,7.13,4.68,13.61,6.96,19.44c2.11-5.83,4.39-12.31,6.82-19.44c2.44-7.13,4.84-14.46,7.19-21.99
			c2.36-7.53,4.64-14.98,6.83-22.35c2.19-7.37,4.11-14.21,5.73-20.53h37.44c-7.64,25.59-15.72,49.24-24.25,70.94
			c-8.53,21.71-16.93,40.66-25.22,56.85H1087.46z"/>
		<path class="st0" d="M1229.88,367.26c10.69,0,19.6,1.21,26.72,3.64c7.13,2.43,12.84,5.91,17.13,10.45
			c4.29,4.54,7.33,10.04,9.11,16.52c1.78,6.48,2.67,13.69,2.67,21.62v75.31c-5.19,1.13-12.39,2.47-21.62,4.01
			c-9.23,1.54-20.41,2.31-33.53,2.31c-8.26,0-15.75-0.73-22.47-2.19c-6.72-1.46-12.51-3.85-17.37-7.17
			c-4.86-3.32-8.59-7.65-11.17-13c-2.59-5.34-3.89-11.9-3.89-19.68c0-7.45,1.5-13.77,4.49-18.95c3-5.18,7-9.31,12.03-12.39
			c5.02-3.08,10.77-5.3,17.25-6.68c6.48-1.37,13.2-2.07,20.16-2.07c4.7,0,8.87,0.21,12.51,0.61c3.65,0.41,6.6,0.93,8.87,1.58v-3.4
			c0-6.15-1.86-11.09-5.59-14.82c-3.73-3.72-10.2-5.59-19.44-5.59c-6.16,0-12.23,0.45-18.22,1.34c-5.99,0.89-11.18,2.15-15.55,3.76
			l-4.62-29.15c2.1-0.65,4.74-1.34,7.9-2.07c3.16-0.73,6.6-1.37,10.32-1.94c3.72-0.57,7.65-1.05,11.78-1.46
			C1221.5,367.47,1225.67,367.26,1229.88,367.26z M1232.8,473.19c3.56,0,6.96-0.08,10.2-0.24c3.24-0.16,5.83-0.4,7.78-0.73v-27.45
			c-1.46-0.32-3.65-0.64-6.56-0.97c-2.92-0.32-5.59-0.49-8.02-0.49c-3.4,0-6.6,0.21-9.6,0.61c-3,0.41-5.63,1.18-7.9,2.31
			c-2.27,1.13-4.05,2.67-5.34,4.62c-1.3,1.94-1.94,4.37-1.94,7.29c0,5.67,1.9,9.6,5.71,11.78
			C1220.93,472.1,1226.15,473.19,1232.8,473.19z"/>
	</g>
	<g>
		<path class="st1" d="M660.47,369.37l-103.13-29.89c-8.23,4.7-16.56,9.38-25.07,14.04c10.31,15.29,19.69,32.24,28.16,50.83
			l82.93,24.04l-12.28,42.37l-50.41-14.61c3.62,10.74,7.04,21.78,10.25,33.16l-54.27-15.73c-2.2-7.79-4.97-16.32-8.33-25.6
			c-3.36-9.28-7.12-18.75-11.31-28.4c-4.19-9.65-8.76-19.07-13.73-28.25c-4.97-9.18-10.18-17.53-15.63-25.05l-24.89,85.88
			l-45.65-13.23l8.07-27.85l-49.42-14.32l12.28-42.37l49.42,14.32l17.11-59.02l-49.42-14.32L417.44,253l49.42,14.32l9.03-31.16
			l45.65,13.23l-22.09,76.21c15.31-8.92,30.97-18.36,46.98-28.31c16.01-9.95,30.81-19.21,44.42-27.81l54.17,15.7
			c-12.05,8.07-24.05,15.83-36,23.35L672.75,327L660.47,369.37z M530.33,147.87c-113.29-5.77-209.81,81.4-215.57,194.69
			c-5.77,113.29,81.4,209.81,194.69,215.57c113.29,5.77,209.81-81.4,215.57-194.69C730.78,250.15,643.62,153.64,530.33,147.87"/>
		<path class="st2" d="M609.01,308.53c11.96-7.52,23.96-15.28,36-23.35l-54.17-15.7c-13.61,8.6-28.42,17.86-44.42,27.81
			c-16.01,9.95-31.67,19.39-46.98,28.31l22.09-76.21l-45.65-13.23l-9.03,31.17L417.44,253l-12.28,42.37l49.42,14.32l-17.11,59.02
			l-49.42-14.32l-12.28,42.37l49.42,14.33l-8.07,27.85l45.65,13.23l24.89-85.88c5.45,7.52,10.66,15.86,15.63,25.05
			c4.97,9.18,9.55,18.6,13.73,28.25c4.19,9.65,7.95,19.12,11.31,28.4c3.36,9.28,6.13,17.81,8.33,25.6l54.27,15.73
			c-3.2-11.39-6.63-22.43-10.25-33.16l50.41,14.61l12.28-42.37l-82.93-24.04c-8.47-18.59-17.85-35.55-28.16-50.83
			c8.51-4.66,16.84-9.34,25.07-14.04l103.13,29.89L672.75,327L609.01,308.53z"/>
	</g>
</g>
</svg>
