<?xml version="1.0" encoding="utf-8"?>
<!-- Generator: Adobe Illustrator 24.2.0, SVG Export Plug-In . SVG Version: 6.00 Build 0)  -->
<svg version="1.1" id="Layer_1" xmlns="http://www.w3.org/2000/svg" xmlns:xlink="http://www.w3.org/1999/xlink" x="0px" y="0px"
	 viewBox="0 0 616 462" style="enable-background:new 0 0 616 462;" xml:space="preserve">
<style type="text/css">
	.st0{fill:#2CA8DF;}
</style>
<g>
	<g>
		<path class="st0" d="M209.36,133.53l57.5-57.5l-35.37-35.37C193.37,2.54,136.19-9.1,74.62,8.7l-7.18,2.08l-2.08,7.18
			c-17.81,61.58-6.16,118.76,31.96,156.87l35.37,35.37l57.5-57.5l-47.92-47.92l19.17-19.17L209.36,133.53z"/>
	</g>
</g>
<g>
	<g>
		<path class="st0" d="M508.92,356.58c-23.11-23.11-58.9-26.01-85.19-8.68L209.36,133.53l-19.17,19.17l214.33,214.33
			c-7.34,11.01-11.28,23.94-11.28,37.48c0,18.1,7.05,35.12,19.85,47.92l9.58,9.58l95.83-95.83L508.92,356.58z M424.3,422.04
			c-2.59-5.41-3.95-11.37-3.95-17.54c0-10.86,4.23-21.07,11.91-28.75c7.93-7.93,18.34-11.89,28.75-11.89c6,0,12,1.32,17.52,3.95
			L424.3,422.04z"/>
	</g>
</g>
<g>
	<g>
		<path class="st0" d="M518.69,248.54c-2.46-62.68-26.67-121.86-68.5-168.13L469.61,61l-19.17-19.17l-19.41,19.41
			c-26.05-23.6-55.96-41.5-89.1-53.29l-8.07-2.87l-42.51,42.5L303.62,57c24.6,18.86,48.34,39.32,70.71,60.95l-71.11,71.11
			l19.17,19.17l71.11-71.1c36.35,37.59,69.07,78.66,97.35,122.26l9.11,14.05l18.96-18.97L518.69,248.54z"/>
	</g>
</g>
<g>
	<g>
		
			<rect x="49.28" y="327.92" transform="matrix(0.7071 -0.7071 0.7071 0.7071 -191.6767 220.1942)" class="st0" width="241.37" height="27.11"/>
	</g>
</g>
</svg>
